<?xml version="1.0" encoding="utf-8"?>
<!-- Generator: Adobe Illustrator 23.0.2, SVG Export Plug-In . SVG Version: 6.00 Build 0)  -->
<svg version="1.1" id="图层_1" xmlns="http://www.w3.org/2000/svg" xmlns:xlink="http://www.w3.org/1999/xlink" x="0px" y="0px"
	 viewBox="0 0 200 200" style="enable-background:new 0 0 200 200;" xml:space="preserve">
<style type="text/css">
	.st0{fill:#FFFFFF;}
</style>
<path class="st0" d="M93.3,90c5.5,0,10,4.5,10,10s-4.5,10-10,10c-5.5,0-10-4.5-10-10S87.8,90,93.3,90C93.3,90,93.3,90,93.3,90z"/>
<path class="st0" d="M176.7,23.3c3.7,0,6.7,3,6.7,6.7c0,0,0,0,0,0v140c0,3.7-3,6.7-6.7,6.7h-53.3V23.3H176.7 M176.7,16.7h-60v166.7
	h60c7.4,0,13.3-6,13.3-13.3V30C190,22.6,184,16.7,176.7,16.7z"/>
<path class="st0" d="M104,6.7c7.1,0.4,12.7,6.2,12.7,13.3v160c0,7.1-5.6,13-12.7,13.3l-72.5-16.7H30c-7.2,0-13.3-4.6-13.3-10V33.3
	c0-5.4,6.1-10,13.3-10h1.5L104,6.7 M103.3,0L30,16.7c-11,0-20,7.5-20,16.7v133.3c0,9.2,9,16.7,20,16.7l73.3,16.7c11,0,20-9,20-20
	c0,0,0,0,0,0V20C123.3,9,114.4,0,103.3,0C103.3,0,103.3,0,103.3,0z"/>
</svg>
