<?xml version="1.0" encoding="utf-8"?>
<!-- Generator: Adobe Illustrator 23.0.2, SVG Export Plug-In . SVG Version: 6.00 Build 0)  -->
<svg version="1.1" id="图层_1" xmlns="http://www.w3.org/2000/svg" xmlns:xlink="http://www.w3.org/1999/xlink" x="0px" y="0px"
	 viewBox="0 0 200 200" style="enable-background:new 0 0 200 200;" xml:space="preserve">
<style type="text/css">
	.st0{fill:#FCFCFC;}
</style>
<path class="st0" d="M162.5,200h-125C16.8,200,0,183.2,0,162.5v-125C0,16.8,16.8,0,37.5,0h125C183.2,0,200,16.8,200,37.5v125
	C200,183.2,183.2,200,162.5,200z M175,37.5c0-6.9-5.6-12.5-12.5-12.5h-125C30.6,25,25,30.6,25,37.5v25h150V37.5z M175,75H25v87.5
	c0,6.9,5.6,12.5,12.5,12.5h125c6.9,0,12.5-5.6,12.5-12.5V75z M126.5,151.5c-4.9,4.9-12.8,4.9-17.7,0c0,0,0,0,0,0l-8.8-8.8l-8.8,8.8
	c-4.9,4.9-12.8,4.9-17.7,0c0,0,0,0,0,0c-4.9-4.9-4.9-12.8,0-17.7c0,0,0,0,0,0l8.8-8.8l-8.8-8.8c-4.9-4.9-4.9-12.8,0-17.7
	c0,0,0,0,0,0c4.9-4.9,12.8-4.9,17.7,0c0,0,0,0,0,0l8.8,8.8l8.8-8.8c4.9-4.9,12.8-4.9,17.7,0c0,0,0,0,0,0c4.9,4.9,4.9,12.8,0,17.7
	c0,0,0,0,0,0l-8.8,8.8l8.8,8.8C131.4,138.7,131.4,146.6,126.5,151.5C126.5,151.5,126.5,151.5,126.5,151.5L126.5,151.5z M50,50H37.5
	V37.5H50V50z M75,50H62.5V37.5H75V50z M162.5,50h-75V37.5h75V50z"/>
</svg>
